<mxfile host="app.diagrams.net" modified="2024-05-14T13:59:10.557Z" agent="Mozilla/5.0 (Windows NT 10.0; Win64; x64) AppleWebKit/537.36 (KHTML, like Gecko) Chrome/124.0.0.0 Safari/537.36" etag="kxB5dOpnXL9Lqbfa11TR" version="24.4.0" type="device">
  <diagram name="Página-1" id="FHPidogdiBFFhRU1ceS8">
    <mxGraphModel dx="1470" dy="1630" grid="0" gridSize="10" guides="1" tooltips="1" connect="1" arrows="1" fold="1" page="0" pageScale="1" pageWidth="827" pageHeight="1169" math="0" shadow="0">
      <root>
        <mxCell id="0" />
        <mxCell id="1" parent="0" />
        <mxCell id="o3TJzHEE8P8qgjw4gUvx-11" value="" style="edgeStyle=none;curved=1;rounded=0;orthogonalLoop=1;jettySize=auto;html=1;fontSize=12;startSize=8;endSize=8;" edge="1" parent="1" source="o3TJzHEE8P8qgjw4gUvx-1">
          <mxGeometry relative="1" as="geometry">
            <mxPoint x="224" y="-314" as="targetPoint" />
          </mxGeometry>
        </mxCell>
        <mxCell id="o3TJzHEE8P8qgjw4gUvx-1" value="Início" style="strokeWidth=2;html=1;shape=mxgraph.flowchart.terminator;whiteSpace=wrap;" vertex="1" parent="1">
          <mxGeometry x="174" y="-468" width="100" height="60" as="geometry" />
        </mxCell>
        <mxCell id="o3TJzHEE8P8qgjw4gUvx-2" value="Digite o dia" style="shape=display;whiteSpace=wrap;html=1;" vertex="1" parent="1">
          <mxGeometry x="184" y="-377" width="80" height="40" as="geometry" />
        </mxCell>
        <mxCell id="o3TJzHEE8P8qgjw4gUvx-12" value="" style="edgeStyle=none;curved=1;rounded=0;orthogonalLoop=1;jettySize=auto;html=1;fontSize=12;startSize=8;endSize=8;" edge="1" parent="1" source="o3TJzHEE8P8qgjw4gUvx-3" target="o3TJzHEE8P8qgjw4gUvx-4">
          <mxGeometry relative="1" as="geometry" />
        </mxCell>
        <mxCell id="o3TJzHEE8P8qgjw4gUvx-3" value="&quot;Dia&quot;" style="html=1;strokeWidth=2;shape=manualInput;whiteSpace=wrap;rounded=1;size=26;arcSize=11;" vertex="1" parent="1">
          <mxGeometry x="174" y="-317" width="100" height="66" as="geometry" />
        </mxCell>
        <mxCell id="o3TJzHEE8P8qgjw4gUvx-14" value="" style="edgeStyle=none;curved=1;rounded=0;orthogonalLoop=1;jettySize=auto;html=1;fontSize=12;startSize=8;endSize=8;" edge="1" parent="1" source="o3TJzHEE8P8qgjw4gUvx-4" target="o3TJzHEE8P8qgjw4gUvx-7">
          <mxGeometry relative="1" as="geometry" />
        </mxCell>
        <mxCell id="o3TJzHEE8P8qgjw4gUvx-4" value="&quot;mês&quot;" style="html=1;strokeWidth=2;shape=manualInput;whiteSpace=wrap;rounded=1;size=26;arcSize=11;" vertex="1" parent="1">
          <mxGeometry x="174" y="-145" width="100" height="67" as="geometry" />
        </mxCell>
        <mxCell id="o3TJzHEE8P8qgjw4gUvx-5" value="Digite o mês" style="shape=display;whiteSpace=wrap;html=1;" vertex="1" parent="1">
          <mxGeometry x="184" y="-225" width="80" height="40" as="geometry" />
        </mxCell>
        <mxCell id="o3TJzHEE8P8qgjw4gUvx-6" value="Digite o ano" style="shape=display;whiteSpace=wrap;html=1;" vertex="1" parent="1">
          <mxGeometry x="184" y="-37" width="80" height="40" as="geometry" />
        </mxCell>
        <mxCell id="o3TJzHEE8P8qgjw4gUvx-15" value="" style="edgeStyle=none;curved=1;rounded=0;orthogonalLoop=1;jettySize=auto;html=1;fontSize=12;startSize=8;endSize=8;" edge="1" parent="1" source="o3TJzHEE8P8qgjw4gUvx-7" target="o3TJzHEE8P8qgjw4gUvx-8">
          <mxGeometry relative="1" as="geometry" />
        </mxCell>
        <mxCell id="o3TJzHEE8P8qgjw4gUvx-7" value="&quot;ano&quot;" style="html=1;strokeWidth=2;shape=manualInput;whiteSpace=wrap;rounded=1;size=26;arcSize=11;" vertex="1" parent="1">
          <mxGeometry x="174" y="25" width="100" height="60" as="geometry" />
        </mxCell>
        <mxCell id="o3TJzHEE8P8qgjw4gUvx-10" value="" style="edgeStyle=none;curved=1;rounded=0;orthogonalLoop=1;jettySize=auto;html=1;fontSize=12;startSize=8;endSize=8;" edge="1" parent="1" source="o3TJzHEE8P8qgjw4gUvx-8" target="o3TJzHEE8P8qgjw4gUvx-9">
          <mxGeometry relative="1" as="geometry" />
        </mxCell>
        <mxCell id="o3TJzHEE8P8qgjw4gUvx-8" value="mês ==&quot; 1&quot; &amp;amp;&amp;amp; &quot;01&quot;" style="strokeWidth=2;html=1;shape=mxgraph.flowchart.decision;whiteSpace=wrap;" vertex="1" parent="1">
          <mxGeometry x="146" y="139" width="161" height="161" as="geometry" />
        </mxCell>
        <mxCell id="o3TJzHEE8P8qgjw4gUvx-20" value="" style="edgeStyle=none;curved=1;rounded=0;orthogonalLoop=1;jettySize=auto;html=1;fontSize=12;startSize=8;endSize=8;" edge="1" parent="1" source="o3TJzHEE8P8qgjw4gUvx-9" target="o3TJzHEE8P8qgjw4gUvx-19">
          <mxGeometry relative="1" as="geometry" />
        </mxCell>
        <mxCell id="o3TJzHEE8P8qgjw4gUvx-9" value="mes =&amp;nbsp; &quot;Janeiro&quot;" style="whiteSpace=wrap;html=1;strokeWidth=2;" vertex="1" parent="1">
          <mxGeometry x="166.5" y="361" width="120" height="60" as="geometry" />
        </mxCell>
        <mxCell id="o3TJzHEE8P8qgjw4gUvx-36" value="" style="edgeStyle=none;curved=1;rounded=0;orthogonalLoop=1;jettySize=auto;html=1;fontSize=12;startSize=8;endSize=8;" edge="1" parent="1" source="o3TJzHEE8P8qgjw4gUvx-19" target="o3TJzHEE8P8qgjw4gUvx-22">
          <mxGeometry relative="1" as="geometry" />
        </mxCell>
        <mxCell id="o3TJzHEE8P8qgjw4gUvx-19" value="" style="ellipse;whiteSpace=wrap;html=1;strokeWidth=2;" vertex="1" parent="1">
          <mxGeometry x="189" y="494" width="80" height="80" as="geometry" />
        </mxCell>
        <mxCell id="o3TJzHEE8P8qgjw4gUvx-21" value="" style="edgeStyle=none;curved=1;rounded=0;orthogonalLoop=1;jettySize=auto;html=1;fontSize=12;startSize=8;endSize=8;" edge="1" parent="1" source="o3TJzHEE8P8qgjw4gUvx-22" target="o3TJzHEE8P8qgjw4gUvx-24">
          <mxGeometry relative="1" as="geometry" />
        </mxCell>
        <mxCell id="o3TJzHEE8P8qgjw4gUvx-22" value="mês ==&quot; 2&quot; &amp;amp;&amp;amp; &quot;02&quot;" style="strokeWidth=2;html=1;shape=mxgraph.flowchart.decision;whiteSpace=wrap;" vertex="1" parent="1">
          <mxGeometry x="148.5" y="637" width="161" height="161" as="geometry" />
        </mxCell>
        <mxCell id="o3TJzHEE8P8qgjw4gUvx-23" value="" style="edgeStyle=none;curved=1;rounded=0;orthogonalLoop=1;jettySize=auto;html=1;fontSize=12;startSize=8;endSize=8;" edge="1" parent="1" source="o3TJzHEE8P8qgjw4gUvx-24" target="o3TJzHEE8P8qgjw4gUvx-25">
          <mxGeometry relative="1" as="geometry" />
        </mxCell>
        <mxCell id="o3TJzHEE8P8qgjw4gUvx-24" value="mês =&amp;nbsp; &quot;Fevereiro&quot;" style="whiteSpace=wrap;html=1;strokeWidth=2;" vertex="1" parent="1">
          <mxGeometry x="169" y="859" width="120" height="60" as="geometry" />
        </mxCell>
        <mxCell id="o3TJzHEE8P8qgjw4gUvx-37" value="" style="edgeStyle=none;curved=1;rounded=0;orthogonalLoop=1;jettySize=auto;html=1;fontSize=12;startSize=8;endSize=8;" edge="1" parent="1" source="o3TJzHEE8P8qgjw4gUvx-25" target="o3TJzHEE8P8qgjw4gUvx-27">
          <mxGeometry relative="1" as="geometry" />
        </mxCell>
        <mxCell id="o3TJzHEE8P8qgjw4gUvx-25" value="" style="ellipse;whiteSpace=wrap;html=1;strokeWidth=2;" vertex="1" parent="1">
          <mxGeometry x="191.5" y="992" width="80" height="80" as="geometry" />
        </mxCell>
        <mxCell id="o3TJzHEE8P8qgjw4gUvx-26" value="" style="edgeStyle=none;curved=1;rounded=0;orthogonalLoop=1;jettySize=auto;html=1;fontSize=12;startSize=8;endSize=8;" edge="1" parent="1" source="o3TJzHEE8P8qgjw4gUvx-27" target="o3TJzHEE8P8qgjw4gUvx-29">
          <mxGeometry relative="1" as="geometry" />
        </mxCell>
        <mxCell id="o3TJzHEE8P8qgjw4gUvx-27" value="mês ==&quot; 3&quot; &amp;amp;&amp;amp; &quot;03&quot;" style="strokeWidth=2;html=1;shape=mxgraph.flowchart.decision;whiteSpace=wrap;" vertex="1" parent="1">
          <mxGeometry x="151" y="1154" width="161" height="161" as="geometry" />
        </mxCell>
        <mxCell id="o3TJzHEE8P8qgjw4gUvx-28" value="" style="edgeStyle=none;curved=1;rounded=0;orthogonalLoop=1;jettySize=auto;html=1;fontSize=12;startSize=8;endSize=8;" edge="1" parent="1" source="o3TJzHEE8P8qgjw4gUvx-29" target="o3TJzHEE8P8qgjw4gUvx-30">
          <mxGeometry relative="1" as="geometry" />
        </mxCell>
        <mxCell id="o3TJzHEE8P8qgjw4gUvx-29" value="mês =&amp;nbsp; &quot;Março&quot;" style="whiteSpace=wrap;html=1;strokeWidth=2;" vertex="1" parent="1">
          <mxGeometry x="171.5" y="1376" width="120" height="60" as="geometry" />
        </mxCell>
        <mxCell id="o3TJzHEE8P8qgjw4gUvx-38" value="" style="edgeStyle=none;curved=1;rounded=0;orthogonalLoop=1;jettySize=auto;html=1;fontSize=12;startSize=8;endSize=8;" edge="1" parent="1" source="o3TJzHEE8P8qgjw4gUvx-30" target="o3TJzHEE8P8qgjw4gUvx-32">
          <mxGeometry relative="1" as="geometry" />
        </mxCell>
        <mxCell id="o3TJzHEE8P8qgjw4gUvx-30" value="" style="ellipse;whiteSpace=wrap;html=1;strokeWidth=2;" vertex="1" parent="1">
          <mxGeometry x="194" y="1509" width="80" height="80" as="geometry" />
        </mxCell>
        <mxCell id="o3TJzHEE8P8qgjw4gUvx-31" value="" style="edgeStyle=none;curved=1;rounded=0;orthogonalLoop=1;jettySize=auto;html=1;fontSize=12;startSize=8;endSize=8;" edge="1" parent="1" source="o3TJzHEE8P8qgjw4gUvx-32" target="o3TJzHEE8P8qgjw4gUvx-34">
          <mxGeometry relative="1" as="geometry" />
        </mxCell>
        <mxCell id="o3TJzHEE8P8qgjw4gUvx-32" value="mês ==&quot; 4&quot; &amp;amp;&amp;amp; &quot;04&quot;" style="strokeWidth=2;html=1;shape=mxgraph.flowchart.decision;whiteSpace=wrap;" vertex="1" parent="1">
          <mxGeometry x="153.5" y="1671" width="161" height="161" as="geometry" />
        </mxCell>
        <mxCell id="o3TJzHEE8P8qgjw4gUvx-33" value="" style="edgeStyle=none;curved=1;rounded=0;orthogonalLoop=1;jettySize=auto;html=1;fontSize=12;startSize=8;endSize=8;" edge="1" parent="1" source="o3TJzHEE8P8qgjw4gUvx-34" target="o3TJzHEE8P8qgjw4gUvx-35">
          <mxGeometry relative="1" as="geometry" />
        </mxCell>
        <mxCell id="o3TJzHEE8P8qgjw4gUvx-34" value="mês =&amp;nbsp; &quot;Abril&quot;" style="whiteSpace=wrap;html=1;strokeWidth=2;" vertex="1" parent="1">
          <mxGeometry x="174" y="1893" width="120" height="60" as="geometry" />
        </mxCell>
        <mxCell id="o3TJzHEE8P8qgjw4gUvx-44" value="" style="edgeStyle=none;curved=1;rounded=0;orthogonalLoop=1;jettySize=auto;html=1;fontSize=12;startSize=8;endSize=8;" edge="1" parent="1" source="o3TJzHEE8P8qgjw4gUvx-35" target="o3TJzHEE8P8qgjw4gUvx-40">
          <mxGeometry relative="1" as="geometry" />
        </mxCell>
        <mxCell id="o3TJzHEE8P8qgjw4gUvx-35" value="" style="ellipse;whiteSpace=wrap;html=1;strokeWidth=2;" vertex="1" parent="1">
          <mxGeometry x="196.5" y="2026" width="80" height="80" as="geometry" />
        </mxCell>
        <mxCell id="o3TJzHEE8P8qgjw4gUvx-39" value="" style="edgeStyle=none;curved=1;rounded=0;orthogonalLoop=1;jettySize=auto;html=1;fontSize=12;startSize=8;endSize=8;" edge="1" parent="1" source="o3TJzHEE8P8qgjw4gUvx-40" target="o3TJzHEE8P8qgjw4gUvx-42">
          <mxGeometry relative="1" as="geometry" />
        </mxCell>
        <mxCell id="o3TJzHEE8P8qgjw4gUvx-40" value="mês ==&quot; 5&quot; &amp;amp;&amp;amp; &quot;05&quot;" style="strokeWidth=2;html=1;shape=mxgraph.flowchart.decision;whiteSpace=wrap;" vertex="1" parent="1">
          <mxGeometry x="156" y="2176" width="161" height="161" as="geometry" />
        </mxCell>
        <mxCell id="o3TJzHEE8P8qgjw4gUvx-41" value="" style="edgeStyle=none;curved=1;rounded=0;orthogonalLoop=1;jettySize=auto;html=1;fontSize=12;startSize=8;endSize=8;" edge="1" parent="1" source="o3TJzHEE8P8qgjw4gUvx-42" target="o3TJzHEE8P8qgjw4gUvx-43">
          <mxGeometry relative="1" as="geometry" />
        </mxCell>
        <mxCell id="o3TJzHEE8P8qgjw4gUvx-42" value="mês =&amp;nbsp; &quot;Maio&lt;span style=&quot;color: rgba(0, 0, 0, 0); font-family: monospace; font-size: 0px; text-align: start; text-wrap: nowrap;&quot;&gt;%3CmxGraphModel%3E%3Croot%3E%3CmxCell%20id%3D%220%22%2F%3E%3CmxCell%20id%3D%221%22%20parent%3D%220%22%2F%3E%3CmxCell%20id%3D%222%22%20value%3D%22%22%20style%3D%22edgeStyle%3Dnone%3Bcurved%3D1%3Brounded%3D0%3BorthogonalLoop%3D1%3BjettySize%3Dauto%3Bhtml%3D1%3BfontSize%3D12%3BstartSize%3D8%3BendSize%3D8%3B%22%20edge%3D%221%22%20source%3D%223%22%20target%3D%225%22%20parent%3D%221%22%3E%3CmxGeometry%20relative%3D%221%22%20as%3D%22geometry%22%2F%3E%3C%2FmxCell%3E%3CmxCell%20id%3D%223%22%20value%3D%22m%C3%AAs%20%3D%3D%26quot%3B%204%26quot%3B%20%26amp%3Bamp%3B%26amp%3Bamp%3B%20%26quot%3B04%26quot%3B%22%20style%3D%22strokeWidth%3D2%3Bhtml%3D1%3Bshape%3Dmxgraph.flowchart.decision%3BwhiteSpace%3Dwrap%3B%22%20vertex%3D%221%22%20parent%3D%221%22%3E%3CmxGeometry%20x%3D%22153.5%22%20y%3D%221671%22%20width%3D%22161%22%20height%3D%22161%22%20as%3D%22geometry%22%2F%3E%3C%2FmxCell%3E%3CmxCell%20id%3D%224%22%20value%3D%22%22%20style%3D%22edgeStyle%3Dnone%3Bcurved%3D1%3Brounded%3D0%3BorthogonalLoop%3D1%3BjettySize%3Dauto%3Bhtml%3D1%3BfontSize%3D12%3BstartSize%3D8%3BendSize%3D8%3B%22%20edge%3D%221%22%20source%3D%225%22%20target%3D%226%22%20parent%3D%221%22%3E%3CmxGeometry%20relative%3D%221%22%20as%3D%22geometry%22%2F%3E%3C%2FmxCell%3E%3CmxCell%20id%3D%225%22%20value%3D%22m%C3%AAs%20%3D%26amp%3Bnbsp%3B%20%26quot%3BAbril%26quot%3B%22%20style%3D%22whiteSpace%3Dwrap%3Bhtml%3D1%3BstrokeWidth%3D2%3B%22%20vertex%3D%221%22%20parent%3D%221%22%3E%3CmxGeometry%20x%3D%22174%22%20y%3D%221893%22%20width%3D%22120%22%20height%3D%2260%22%20as%3D%22geometry%22%2F%3E%3C%2FmxCell%3E%3CmxCell%20id%3D%226%22%20value%3D%22%22%20style%3D%22ellipse%3BwhiteSpace%3Dwrap%3Bhtml%3D1%3BstrokeWidth%3D2%3B%22%20vertex%3D%221%22%20parent%3D%221%22%3E%3CmxGeometry%20x%3D%22196.5%22%20y%3D%222026%22%20width%3D%2280%22%20height%3D%2280%22%20as%3D%22geometry%22%2F%3E%3C%2FmxCell%3E%3C%2Froot%3E%3C%2FmxGraphModel%3E&lt;/span&gt;&quot;" style="whiteSpace=wrap;html=1;strokeWidth=2;" vertex="1" parent="1">
          <mxGeometry x="176.5" y="2398" width="120" height="60" as="geometry" />
        </mxCell>
        <mxCell id="o3TJzHEE8P8qgjw4gUvx-50" value="" style="edgeStyle=none;curved=1;rounded=0;orthogonalLoop=1;jettySize=auto;html=1;fontSize=12;startSize=8;endSize=8;" edge="1" parent="1" source="o3TJzHEE8P8qgjw4gUvx-43" target="o3TJzHEE8P8qgjw4gUvx-46">
          <mxGeometry relative="1" as="geometry" />
        </mxCell>
        <mxCell id="o3TJzHEE8P8qgjw4gUvx-43" value="" style="ellipse;whiteSpace=wrap;html=1;strokeWidth=2;" vertex="1" parent="1">
          <mxGeometry x="199" y="2531" width="80" height="80" as="geometry" />
        </mxCell>
        <mxCell id="o3TJzHEE8P8qgjw4gUvx-45" value="" style="edgeStyle=none;curved=1;rounded=0;orthogonalLoop=1;jettySize=auto;html=1;fontSize=12;startSize=8;endSize=8;" edge="1" parent="1" source="o3TJzHEE8P8qgjw4gUvx-46" target="o3TJzHEE8P8qgjw4gUvx-48">
          <mxGeometry relative="1" as="geometry" />
        </mxCell>
        <mxCell id="o3TJzHEE8P8qgjw4gUvx-46" value="mês ==&quot; 6&quot; &amp;amp;&amp;amp; &quot;06&quot;" style="strokeWidth=2;html=1;shape=mxgraph.flowchart.decision;whiteSpace=wrap;" vertex="1" parent="1">
          <mxGeometry x="158.5" y="2667" width="161" height="161" as="geometry" />
        </mxCell>
        <mxCell id="o3TJzHEE8P8qgjw4gUvx-47" value="" style="edgeStyle=none;curved=1;rounded=0;orthogonalLoop=1;jettySize=auto;html=1;fontSize=12;startSize=8;endSize=8;" edge="1" parent="1" source="o3TJzHEE8P8qgjw4gUvx-48" target="o3TJzHEE8P8qgjw4gUvx-49">
          <mxGeometry relative="1" as="geometry" />
        </mxCell>
        <mxCell id="o3TJzHEE8P8qgjw4gUvx-48" value="mês =&amp;nbsp; &quot;Junho&quot;" style="whiteSpace=wrap;html=1;strokeWidth=2;" vertex="1" parent="1">
          <mxGeometry x="179" y="2889" width="120" height="60" as="geometry" />
        </mxCell>
        <mxCell id="o3TJzHEE8P8qgjw4gUvx-86" value="" style="edgeStyle=none;curved=1;rounded=0;orthogonalLoop=1;jettySize=auto;html=1;fontSize=12;startSize=8;endSize=8;" edge="1" parent="1" source="o3TJzHEE8P8qgjw4gUvx-49" target="o3TJzHEE8P8qgjw4gUvx-52">
          <mxGeometry relative="1" as="geometry" />
        </mxCell>
        <mxCell id="o3TJzHEE8P8qgjw4gUvx-49" value="" style="ellipse;whiteSpace=wrap;html=1;strokeWidth=2;" vertex="1" parent="1">
          <mxGeometry x="201.5" y="3022" width="80" height="80" as="geometry" />
        </mxCell>
        <mxCell id="o3TJzHEE8P8qgjw4gUvx-51" value="" style="edgeStyle=none;curved=1;rounded=0;orthogonalLoop=1;jettySize=auto;html=1;fontSize=12;startSize=8;endSize=8;" edge="1" parent="1" source="o3TJzHEE8P8qgjw4gUvx-52" target="o3TJzHEE8P8qgjw4gUvx-54">
          <mxGeometry relative="1" as="geometry" />
        </mxCell>
        <mxCell id="o3TJzHEE8P8qgjw4gUvx-52" value="mês ==&quot; 7&quot; &amp;amp;&amp;amp; &quot;07&quot;" style="strokeWidth=2;html=1;shape=mxgraph.flowchart.decision;whiteSpace=wrap;" vertex="1" parent="1">
          <mxGeometry x="161" y="3160" width="161" height="161" as="geometry" />
        </mxCell>
        <mxCell id="o3TJzHEE8P8qgjw4gUvx-53" value="" style="edgeStyle=none;curved=1;rounded=0;orthogonalLoop=1;jettySize=auto;html=1;fontSize=12;startSize=8;endSize=8;" edge="1" parent="1" source="o3TJzHEE8P8qgjw4gUvx-54" target="o3TJzHEE8P8qgjw4gUvx-55">
          <mxGeometry relative="1" as="geometry" />
        </mxCell>
        <mxCell id="o3TJzHEE8P8qgjw4gUvx-54" value="mês =&amp;nbsp; &quot;Jul&lt;span style=&quot;color: rgba(0, 0, 0, 0); font-family: monospace; font-size: 0px; text-align: start; text-wrap: nowrap;&quot;&gt;%3CmxGraphModel%3E%3Croot%3E%3CmxCell%20id%3D%220%22%2F%3E%3CmxCell%20id%3D%221%22%20parent%3D%220%22%2F%3E%3CmxCell%20id%3D%222%22%20value%3D%22%22%20style%3D%22edgeStyle%3Dnone%3Bcurved%3D1%3Brounded%3D0%3BorthogonalLoop%3D1%3BjettySize%3Dauto%3Bhtml%3D1%3BfontSize%3D12%3BstartSize%3D8%3BendSize%3D8%3B%22%20edge%3D%221%22%20source%3D%223%22%20target%3D%225%22%20parent%3D%221%22%3E%3CmxGeometry%20relative%3D%221%22%20as%3D%22geometry%22%2F%3E%3C%2FmxCell%3E%3CmxCell%20id%3D%223%22%20value%3D%22m%C3%AAs%20%3D%3D%26quot%3B%206%26quot%3B%20%26amp%3Bamp%3B%26amp%3Bamp%3B%20%26quot%3B06%26quot%3B%22%20style%3D%22strokeWidth%3D2%3Bhtml%3D1%3Bshape%3Dmxgraph.flowchart.decision%3BwhiteSpace%3Dwrap%3B%22%20vertex%3D%221%22%20parent%3D%221%22%3E%3CmxGeometry%20x%3D%22158.5%22%20y%3D%222667%22%20width%3D%22161%22%20height%3D%22161%22%20as%3D%22geometry%22%2F%3E%3C%2FmxCell%3E%3CmxCell%20id%3D%224%22%20value%3D%22%22%20style%3D%22edgeStyle%3Dnone%3Bcurved%3D1%3Brounded%3D0%3BorthogonalLoop%3D1%3BjettySize%3Dauto%3Bhtml%3D1%3BfontSize%3D12%3BstartSize%3D8%3BendSize%3D8%3B%22%20edge%3D%221%22%20source%3D%225%22%20target%3D%226%22%20parent%3D%221%22%3E%3CmxGeometry%20relative%3D%221%22%20as%3D%22geometry%22%2F%3E%3C%2FmxCell%3E%3CmxCell%20id%3D%225%22%20value%3D%22m%C3%AAs%20%3D%26amp%3Bnbsp%3B%20%26quot%3BJunho%26quot%3B%22%20style%3D%22whiteSpace%3Dwrap%3Bhtml%3D1%3BstrokeWidth%3D2%3B%22%20vertex%3D%221%22%20parent%3D%221%22%3E%3CmxGeometry%20x%3D%22179%22%20y%3D%222889%22%20width%3D%22120%22%20height%3D%2260%22%20as%3D%22geometry%22%2F%3E%3C%2FmxCell%3E%3CmxCell%20id%3D%226%22%20value%3D%22%22%20style%3D%22ellipse%3BwhiteSpace%3Dwrap%3Bhtml%3D1%3BstrokeWidth%3D2%3B%22%20vertex%3D%221%22%20parent%3D%221%22%3E%3CmxGeometry%20x%3D%22201.5%22%20y%3D%223022%22%20width%3D%2280%22%20height%3D%2280%22%20as%3D%22geometry%22%2F%3E%3C%2FmxCell%3E%3C%2Froot%3E%3C%2FmxGraphModel%3E&lt;/span&gt;&lt;span style=&quot;color: rgba(0, 0, 0, 0); font-family: monospace; font-size: 0px; text-align: start; text-wrap: nowrap;&quot;&gt;%3CmxGraphModel%3E%3Croot%3E%3CmxCell%20id%3D%220%22%2F%3E%3CmxCell%20id%3D%221%22%20parent%3D%220%22%2F%3E%3CmxCell%20id%3D%222%22%20value%3D%22%22%20style%3D%22edgeStyle%3Dnone%3Bcurved%3D1%3Brounded%3D0%3BorthogonalLoop%3D1%3BjettySize%3Dauto%3Bhtml%3D1%3BfontSize%3D12%3BstartSize%3D8%3BendSize%3D8%3B%22%20edge%3D%221%22%20source%3D%223%22%20target%3D%225%22%20parent%3D%221%22%3E%3CmxGeometry%20relative%3D%221%22%20as%3D%22geometry%22%2F%3E%3C%2FmxCell%3E%3CmxCell%20id%3D%223%22%20value%3D%22m%C3%AAs%20%3D%3D%26quot%3B%206%26quot%3B%20%26amp%3Bamp%3B%26amp%3Bamp%3B%20%26quot%3B06%26quot%3B%22%20style%3D%22strokeWidth%3D2%3Bhtml%3D1%3Bshape%3Dmxgraph.flowchart.decision%3BwhiteSpace%3Dwrap%3B%22%20vertex%3D%221%22%20parent%3D%221%22%3E%3CmxGeometry%20x%3D%22158.5%22%20y%3D%222667%22%20width%3D%22161%22%20height%3D%22161%22%20as%3D%22geometry%22%2F%3E%3C%2FmxCell%3E%3CmxCell%20id%3D%224%22%20value%3D%22%22%20style%3D%22edgeStyle%3Dnone%3Bcurved%3D1%3Brounded%3D0%3BorthogonalLoop%3D1%3BjettySize%3Dauto%3Bhtml%3D1%3BfontSize%3D12%3BstartSize%3D8%3BendSize%3D8%3B%22%20edge%3D%221%22%20source%3D%225%22%20target%3D%226%22%20parent%3D%221%22%3E%3CmxGeometry%20relative%3D%221%22%20as%3D%22geometry%22%2F%3E%3C%2FmxCell%3E%3CmxCell%20id%3D%225%22%20value%3D%22m%C3%AAs%20%3D%26amp%3Bnbsp%3B%20%26quot%3BJunho%26quot%3B%22%20style%3D%22whiteSpace%3Dwrap%3Bhtml%3D1%3BstrokeWidth%3D2%3B%22%20vertex%3D%221%22%20parent%3D%221%22%3E%3CmxGeometry%20x%3D%22179%22%20y%3D%222889%22%20width%3D%22120%22%20height%3D%2260%22%20as%3D%22geometry%22%2F%3E%3C%2FmxCell%3E%3CmxCell%20id%3D%226%22%20value%3D%22%22%20style%3D%22ellipse%3BwhiteSpace%3Dwrap%3Bhtml%3D1%3BstrokeWidth%3D2%3B%22%20vertex%3D%221%22%20parent%3D%221%22%3E%3CmxGeometry%20x%3D%22201.5%22%20y%3D%223022%22%20width%3D%2280%22%20height%3D%2280%22%20as%3D%22geometry%22%2F%3E%3C%2FmxCell%3E%3C%2Froot%3E%3C%2FmxGraphModel%3E&lt;/span&gt;ho&quot;" style="whiteSpace=wrap;html=1;strokeWidth=2;" vertex="1" parent="1">
          <mxGeometry x="181.5" y="3382" width="120" height="60" as="geometry" />
        </mxCell>
        <mxCell id="o3TJzHEE8P8qgjw4gUvx-61" value="" style="edgeStyle=none;curved=1;rounded=0;orthogonalLoop=1;jettySize=auto;html=1;fontSize=12;startSize=8;endSize=8;" edge="1" parent="1" source="o3TJzHEE8P8qgjw4gUvx-55" target="o3TJzHEE8P8qgjw4gUvx-57">
          <mxGeometry relative="1" as="geometry" />
        </mxCell>
        <mxCell id="o3TJzHEE8P8qgjw4gUvx-55" value="" style="ellipse;whiteSpace=wrap;html=1;strokeWidth=2;" vertex="1" parent="1">
          <mxGeometry x="204" y="3515" width="80" height="80" as="geometry" />
        </mxCell>
        <mxCell id="o3TJzHEE8P8qgjw4gUvx-56" value="" style="edgeStyle=none;curved=1;rounded=0;orthogonalLoop=1;jettySize=auto;html=1;fontSize=12;startSize=8;endSize=8;" edge="1" parent="1" source="o3TJzHEE8P8qgjw4gUvx-57" target="o3TJzHEE8P8qgjw4gUvx-59">
          <mxGeometry relative="1" as="geometry" />
        </mxCell>
        <mxCell id="o3TJzHEE8P8qgjw4gUvx-57" value="mês ==&quot; 8&quot; &amp;amp;&amp;amp; &quot;08&quot;" style="strokeWidth=2;html=1;shape=mxgraph.flowchart.decision;whiteSpace=wrap;" vertex="1" parent="1">
          <mxGeometry x="163.5" y="3692" width="161" height="161" as="geometry" />
        </mxCell>
        <mxCell id="o3TJzHEE8P8qgjw4gUvx-58" value="" style="edgeStyle=none;curved=1;rounded=0;orthogonalLoop=1;jettySize=auto;html=1;fontSize=12;startSize=8;endSize=8;" edge="1" parent="1" source="o3TJzHEE8P8qgjw4gUvx-59" target="o3TJzHEE8P8qgjw4gUvx-60">
          <mxGeometry relative="1" as="geometry" />
        </mxCell>
        <mxCell id="o3TJzHEE8P8qgjw4gUvx-59" value="mês =&amp;nbsp; &quot;Agosto&quot;" style="whiteSpace=wrap;html=1;strokeWidth=2;" vertex="1" parent="1">
          <mxGeometry x="184" y="3914" width="120" height="60" as="geometry" />
        </mxCell>
        <mxCell id="o3TJzHEE8P8qgjw4gUvx-67" value="" style="edgeStyle=none;curved=1;rounded=0;orthogonalLoop=1;jettySize=auto;html=1;fontSize=12;startSize=8;endSize=8;" edge="1" parent="1" source="o3TJzHEE8P8qgjw4gUvx-60" target="o3TJzHEE8P8qgjw4gUvx-63">
          <mxGeometry relative="1" as="geometry" />
        </mxCell>
        <mxCell id="o3TJzHEE8P8qgjw4gUvx-60" value="" style="ellipse;whiteSpace=wrap;html=1;strokeWidth=2;" vertex="1" parent="1">
          <mxGeometry x="206.5" y="4047" width="80" height="80" as="geometry" />
        </mxCell>
        <mxCell id="o3TJzHEE8P8qgjw4gUvx-62" value="" style="edgeStyle=none;curved=1;rounded=0;orthogonalLoop=1;jettySize=auto;html=1;fontSize=12;startSize=8;endSize=8;" edge="1" parent="1" source="o3TJzHEE8P8qgjw4gUvx-63" target="o3TJzHEE8P8qgjw4gUvx-65">
          <mxGeometry relative="1" as="geometry" />
        </mxCell>
        <mxCell id="o3TJzHEE8P8qgjw4gUvx-63" value="mês ==&quot; 9&quot; &amp;amp;&amp;amp; &quot;09&quot;" style="strokeWidth=2;html=1;shape=mxgraph.flowchart.decision;whiteSpace=wrap;" vertex="1" parent="1">
          <mxGeometry x="163.5" y="4191" width="161" height="161" as="geometry" />
        </mxCell>
        <mxCell id="o3TJzHEE8P8qgjw4gUvx-64" value="" style="edgeStyle=none;curved=1;rounded=0;orthogonalLoop=1;jettySize=auto;html=1;fontSize=12;startSize=8;endSize=8;" edge="1" parent="1" source="o3TJzHEE8P8qgjw4gUvx-65" target="o3TJzHEE8P8qgjw4gUvx-66">
          <mxGeometry relative="1" as="geometry" />
        </mxCell>
        <mxCell id="o3TJzHEE8P8qgjw4gUvx-65" value="mês =&amp;nbsp; &quot;Setembro&quot;" style="whiteSpace=wrap;html=1;strokeWidth=2;" vertex="1" parent="1">
          <mxGeometry x="184" y="4413" width="120" height="60" as="geometry" />
        </mxCell>
        <mxCell id="o3TJzHEE8P8qgjw4gUvx-73" value="" style="edgeStyle=none;curved=1;rounded=0;orthogonalLoop=1;jettySize=auto;html=1;fontSize=12;startSize=8;endSize=8;" edge="1" parent="1" source="o3TJzHEE8P8qgjw4gUvx-66" target="o3TJzHEE8P8qgjw4gUvx-69">
          <mxGeometry relative="1" as="geometry" />
        </mxCell>
        <mxCell id="o3TJzHEE8P8qgjw4gUvx-66" value="" style="ellipse;whiteSpace=wrap;html=1;strokeWidth=2;" vertex="1" parent="1">
          <mxGeometry x="206.5" y="4546" width="80" height="80" as="geometry" />
        </mxCell>
        <mxCell id="o3TJzHEE8P8qgjw4gUvx-68" value="" style="edgeStyle=none;curved=1;rounded=0;orthogonalLoop=1;jettySize=auto;html=1;fontSize=12;startSize=8;endSize=8;" edge="1" parent="1" source="o3TJzHEE8P8qgjw4gUvx-69" target="o3TJzHEE8P8qgjw4gUvx-71">
          <mxGeometry relative="1" as="geometry" />
        </mxCell>
        <mxCell id="o3TJzHEE8P8qgjw4gUvx-69" value="mês ==&quot; 10&quot;" style="strokeWidth=2;html=1;shape=mxgraph.flowchart.decision;whiteSpace=wrap;" vertex="1" parent="1">
          <mxGeometry x="163.5" y="4675" width="161" height="161" as="geometry" />
        </mxCell>
        <mxCell id="o3TJzHEE8P8qgjw4gUvx-70" value="" style="edgeStyle=none;curved=1;rounded=0;orthogonalLoop=1;jettySize=auto;html=1;fontSize=12;startSize=8;endSize=8;" edge="1" parent="1" source="o3TJzHEE8P8qgjw4gUvx-71" target="o3TJzHEE8P8qgjw4gUvx-72">
          <mxGeometry relative="1" as="geometry" />
        </mxCell>
        <mxCell id="o3TJzHEE8P8qgjw4gUvx-71" value="mês =&amp;nbsp; &quot;Outubro&quot;" style="whiteSpace=wrap;html=1;strokeWidth=2;" vertex="1" parent="1">
          <mxGeometry x="184" y="4897" width="120" height="60" as="geometry" />
        </mxCell>
        <mxCell id="o3TJzHEE8P8qgjw4gUvx-79" value="" style="edgeStyle=none;curved=1;rounded=0;orthogonalLoop=1;jettySize=auto;html=1;fontSize=12;startSize=8;endSize=8;" edge="1" parent="1" source="o3TJzHEE8P8qgjw4gUvx-72" target="o3TJzHEE8P8qgjw4gUvx-75">
          <mxGeometry relative="1" as="geometry" />
        </mxCell>
        <mxCell id="o3TJzHEE8P8qgjw4gUvx-72" value="" style="ellipse;whiteSpace=wrap;html=1;strokeWidth=2;" vertex="1" parent="1">
          <mxGeometry x="206.5" y="5030" width="80" height="80" as="geometry" />
        </mxCell>
        <mxCell id="o3TJzHEE8P8qgjw4gUvx-74" value="" style="edgeStyle=none;curved=1;rounded=0;orthogonalLoop=1;jettySize=auto;html=1;fontSize=12;startSize=8;endSize=8;" edge="1" parent="1" source="o3TJzHEE8P8qgjw4gUvx-75" target="o3TJzHEE8P8qgjw4gUvx-77">
          <mxGeometry relative="1" as="geometry" />
        </mxCell>
        <mxCell id="o3TJzHEE8P8qgjw4gUvx-75" value="mês ==&quot;11&quot;" style="strokeWidth=2;html=1;shape=mxgraph.flowchart.decision;whiteSpace=wrap;" vertex="1" parent="1">
          <mxGeometry x="166" y="5160" width="161" height="161" as="geometry" />
        </mxCell>
        <mxCell id="o3TJzHEE8P8qgjw4gUvx-76" value="" style="edgeStyle=none;curved=1;rounded=0;orthogonalLoop=1;jettySize=auto;html=1;fontSize=12;startSize=8;endSize=8;" edge="1" parent="1" source="o3TJzHEE8P8qgjw4gUvx-77" target="o3TJzHEE8P8qgjw4gUvx-78">
          <mxGeometry relative="1" as="geometry" />
        </mxCell>
        <mxCell id="o3TJzHEE8P8qgjw4gUvx-77" value="mês =&amp;nbsp; &quot;Novembro&quot;" style="whiteSpace=wrap;html=1;strokeWidth=2;" vertex="1" parent="1">
          <mxGeometry x="186.5" y="5382" width="120" height="60" as="geometry" />
        </mxCell>
        <mxCell id="o3TJzHEE8P8qgjw4gUvx-85" value="" style="edgeStyle=none;curved=1;rounded=0;orthogonalLoop=1;jettySize=auto;html=1;fontSize=12;startSize=8;endSize=8;" edge="1" parent="1" source="o3TJzHEE8P8qgjw4gUvx-78" target="o3TJzHEE8P8qgjw4gUvx-81">
          <mxGeometry relative="1" as="geometry" />
        </mxCell>
        <mxCell id="o3TJzHEE8P8qgjw4gUvx-78" value="" style="ellipse;whiteSpace=wrap;html=1;strokeWidth=2;" vertex="1" parent="1">
          <mxGeometry x="209" y="5515" width="80" height="80" as="geometry" />
        </mxCell>
        <mxCell id="o3TJzHEE8P8qgjw4gUvx-80" value="" style="edgeStyle=none;curved=1;rounded=0;orthogonalLoop=1;jettySize=auto;html=1;fontSize=12;startSize=8;endSize=8;" edge="1" parent="1" source="o3TJzHEE8P8qgjw4gUvx-81" target="o3TJzHEE8P8qgjw4gUvx-83">
          <mxGeometry relative="1" as="geometry" />
        </mxCell>
        <mxCell id="o3TJzHEE8P8qgjw4gUvx-81" value="mês ==&quot; 12&quot;" style="strokeWidth=2;html=1;shape=mxgraph.flowchart.decision;whiteSpace=wrap;" vertex="1" parent="1">
          <mxGeometry x="166" y="5655" width="161" height="161" as="geometry" />
        </mxCell>
        <mxCell id="o3TJzHEE8P8qgjw4gUvx-82" value="" style="edgeStyle=none;curved=1;rounded=0;orthogonalLoop=1;jettySize=auto;html=1;fontSize=12;startSize=8;endSize=8;" edge="1" parent="1" source="o3TJzHEE8P8qgjw4gUvx-83" target="o3TJzHEE8P8qgjw4gUvx-84">
          <mxGeometry relative="1" as="geometry" />
        </mxCell>
        <mxCell id="o3TJzHEE8P8qgjw4gUvx-83" value="mês =&amp;nbsp; &quot;Dezembro&quot;" style="whiteSpace=wrap;html=1;strokeWidth=2;" vertex="1" parent="1">
          <mxGeometry x="186.5" y="5877" width="120" height="60" as="geometry" />
        </mxCell>
        <mxCell id="o3TJzHEE8P8qgjw4gUvx-88" value="" style="edgeStyle=none;curved=1;rounded=0;orthogonalLoop=1;jettySize=auto;html=1;fontSize=12;startSize=8;endSize=8;" edge="1" parent="1" source="o3TJzHEE8P8qgjw4gUvx-84" target="o3TJzHEE8P8qgjw4gUvx-87">
          <mxGeometry relative="1" as="geometry" />
        </mxCell>
        <mxCell id="o3TJzHEE8P8qgjw4gUvx-84" value="" style="ellipse;whiteSpace=wrap;html=1;strokeWidth=2;" vertex="1" parent="1">
          <mxGeometry x="209" y="6010" width="80" height="80" as="geometry" />
        </mxCell>
        <mxCell id="o3TJzHEE8P8qgjw4gUvx-87" value="Dia:&lt;div&gt;Mês:&lt;/div&gt;&lt;div&gt;Ano:&lt;/div&gt;&lt;div&gt;Resultado:&lt;/div&gt;" style="shape=display;whiteSpace=wrap;html=1;" vertex="1" parent="1">
          <mxGeometry x="163.75" y="6144" width="170.5" height="80" as="geometry" />
        </mxCell>
        <mxCell id="o3TJzHEE8P8qgjw4gUvx-89" value="Fim" style="strokeWidth=2;html=1;shape=mxgraph.flowchart.terminator;whiteSpace=wrap;" vertex="1" parent="1">
          <mxGeometry x="204" y="6264" width="100" height="60" as="geometry" />
        </mxCell>
      </root>
    </mxGraphModel>
  </diagram>
</mxfile>
